<svg version="1.1" xmlns="http://www.w3.org/2000/svg" viewBox="0 0 493.74600014051447 623.2610925706966" width="987.4920002810289" height="1246.5221851413933">
  <!-- svg-source:excalidraw -->
  
  <defs>
    <style class="style-fonts">
      @font-face {
        font-family: "Virgil";
        src: url("https://excalidraw.com/Virgil.woff2");
      }
      @font-face {
        font-family: "Cascadia";
        src: url("https://excalidraw.com/Cascadia.woff2");
      }
      @font-face {
        font-family: "Assistant";
        src: url("https://excalidraw.com/Assistant-Regular.woff2");
      }
    </style>
    
  </defs>
  <g stroke-linecap="round"><g transform="translate(203.9935678724949 40.9140625) rotate(0 0 24.337890625)"><path d="M-0.01 0.12 C0.06 8.34, 0.19 40.77, 0.19 48.86 M-0.68 -0.3 C-0.65 7.79, -0.2 39.73, -0.14 47.98" stroke="#1e1e1e" stroke-width="2" fill="none"></path></g></g><mask></mask><g stroke-linecap="round"><g transform="translate(264.7378512076387 39.05110509655438) rotate(0 0 24.337890625)"><path d="M0.26 -0.34 C0.4 7.79, 0.35 40.67, 0.32 48.87 M-0.27 0.68 C-0.14 8.63, 0.05 40.14, 0.06 48.01" stroke="#1e1e1e" stroke-width="2" fill="none"></path></g></g><mask></mask><g stroke-linecap="round"><g transform="translate(234.0271053847586 141.9555720680471) rotate(0 -5.684341886080802e-14 24.337890625)"><path d="M-0.26 0.14 C-0.19 8.14, 0.22 40.24, 0.35 48.26 M0.61 -0.26 C0.64 7.78, 0.13 40.6, 0.11 48.75" stroke="#2f9e44" stroke-width="2" fill="none"></path></g></g><mask></mask><g stroke-linecap="round"><g transform="translate(117.08745704450922 262.98714591460146) rotate(0 -2.842170943040401e-14 24.337890625)"><path d="M0.31 0.28 C0.15 8.46, -0.32 40.6, -0.45 48.65 M-0.19 -0.06 C-0.24 8.25, 0.43 41.15, 0.56 49.34" stroke="#2f9e44" stroke-width="2" fill="none"></path></g></g><mask></mask><g stroke-linecap="round"><g transform="translate(193.9857553724949 203.91015625) rotate(0 -16.708984375 19.861328125)"><path d="M-0.25 0.25 C-5.8 6.74, -28.2 33.29, -33.57 39.92 M1.81 -0.67 C-3.88 5.36, -28.84 30.87, -34.6 37.9" stroke="#1e1e1e" stroke-width="2" fill="none"></path></g><g transform="translate(193.9857553724949 203.91015625) rotate(0 -16.708984375 19.861328125)"><path d="M-25.16 14.75 C-27.16 20.85, -29.86 29.07, -34.6 37.9 M-25.16 14.75 C-27.6 22.65, -31.23 29.45, -34.6 37.9" stroke="#1e1e1e" stroke-width="2" fill="none"></path></g><g transform="translate(193.9857553724949 203.91015625) rotate(0 -16.708984375 19.861328125)"><path d="M-12.49 26.24 C-18.08 29.15, -24.26 34.2, -34.6 37.9 M-12.49 26.24 C-19.06 30.49, -26.78 33.57, -34.6 37.9" stroke="#1e1e1e" stroke-width="2" fill="none"></path></g></g><mask></mask><g stroke-linecap="round"><g transform="translate(272.1341928724949 204.70703125) rotate(0 15.92578125 18.390625)"><path d="M-0.97 -0.74 C4.31 5.32, 26.33 30.25, 31.76 36.34 M0.73 1.48 C5.83 7.72, 25.76 31.79, 30.76 37.65" stroke="#1e1e1e" stroke-width="2" fill="none"></path></g><g transform="translate(272.1341928724949 204.70703125) rotate(0 15.92578125 18.390625)"><path d="M9.7 25.48 C14.95 29.25, 21.97 32.81, 30.76 37.65 M9.7 25.48 C14.09 28.08, 19.81 30.48, 30.76 37.65" stroke="#1e1e1e" stroke-width="2" fill="none"></path></g><g transform="translate(272.1341928724949 204.70703125) rotate(0 15.92578125 18.390625)"><path d="M22.45 14.79 C23.76 21.76, 26.84 28.61, 30.76 37.65 M22.45 14.79 C24.11 19.76, 27.04 24.51, 30.76 37.65" stroke="#1e1e1e" stroke-width="2" fill="none"></path></g></g><mask></mask><g stroke-linecap="round"><g transform="translate(211.55641004770558 287.1177182436455) rotate(0 -5.684341886080802e-14 24.337890625)"><path d="M0 -0.05 C0.17 8.09, 0.56 40.76, 0.51 48.9 M-0.66 -0.55 C-0.48 7.41, 0.36 39.71, 0.34 48.05" stroke="#e03131" stroke-width="2" fill="none"></path></g></g><mask></mask><g stroke-linecap="round"><g transform="translate(261.979488652007 285.92852538614534) rotate(0 0 24.337890625)"><path d="M0.26 -0.46 C0.3 7.66, 0.01 40.54, 0.03 48.79 M-0.27 0.49 C-0.28 8.44, -0.47 39.93, -0.38 47.88" stroke="#e03131" stroke-width="2" fill="none"></path></g></g><mask></mask><g transform="translate(184.8099741224949 50) rotate(0 2.7099990844726562 12.5)"><text x="0" y="0" font-family="Virgil, Segoe UI Emoji" font-size="20px" fill="#1e1e1e" text-anchor="start" style="white-space: pre;" direction="ltr" dominant-baseline="text-before-edge">1</text></g><g transform="translate(225.19372503802225 71.49609375) rotate(0 7.1199951171875 12.5)"><text x="0" y="0" font-family="Virgil, Segoe UI Emoji" font-size="20px" fill="#1e1e1e" text-anchor="start" style="white-space: pre;" direction="ltr" dominant-baseline="text-before-edge">2</text></g><g transform="translate(276.0727915053074 48.625) rotate(0 6.80999755859375 12.5)"><text x="0" y="0" font-family="Virgil, Segoe UI Emoji" font-size="20px" fill="#1e1e1e" text-anchor="start" style="white-space: pre;" direction="ltr" dominant-baseline="text-before-edge">3</text></g><g stroke-linecap="round"><g transform="translate(207.2748178724949 40.83203125) rotate(0 27.310546875 22.52734375)"><path d="M-0.52 -0.48 C8.46 6.96, 44.39 37.87, 53.52 45.62 M1.4 -1.78 C10.78 5.21, 47.01 36.13, 55.66 43.79" stroke="#1e1e1e" stroke-width="2" fill="none"></path></g></g><mask></mask><g stroke-linecap="round"><g transform="translate(118.3138803724949 255.94140625) rotate(0 25.19140625 26.798828125)"><path d="M0.06 1.08 C8.38 9.98, 41.29 45.26, 49.5 53.82 M-1.36 0.6 C7.37 9.08, 42.91 43.06, 51.74 51.82" stroke="#2f9e44" stroke-width="2" fill="none"></path></g></g><mask></mask><g stroke-linecap="round"><g transform="translate(194.3629660708055 431.0213875609451) rotate(0 0 24.337890625)"><path d="M0.28 -0.12 C0.28 7.93, -0.52 39.98, -0.52 48.19 M-0.24 -0.65 C-0.04 7.45, 0.39 40.48, 0.45 48.64" stroke="#ced4da" stroke-width="2" fill="none"></path></g></g><mask></mask><g stroke-linecap="round"><g transform="translate(244.78604467510678 429.83219470344477) rotate(0 0 24.337890625)"><path d="M-0.52 -0.48 C-0.51 7.73, 0.2 41.02, 0.33 49.16 M0.22 0.46 C0.16 8.54, 0.1 40.39, 0.07 48.44" stroke="#ced4da" stroke-width="2" fill="none"></path></g></g><mask></mask><g stroke-linecap="round"><g transform="translate(199.1537241224949 429.98828125) rotate(0 22.40625 23.306640625)"><path d="M-0.81 -1.17 C6.75 6.58, 37.08 39.59, 44.63 47.45 M0.96 0.83 C8.42 8.17, 36.48 38.08, 43.58 45.77" stroke="#ced4da" stroke-width="2" fill="none"></path></g></g><mask></mask><g stroke-linecap="round"><g transform="translate(224.4076303724949 355.65625) rotate(0 -3.8984375 24.9296875)"><path d="M0.16 0.55 C-1.19 8.98, -6.86 42.01, -8.17 50.24 M-0.42 0.36 C-1.59 8.66, -5.87 41.1, -7.13 49.47" stroke="#1e1e1e" stroke-width="2" fill="none"></path></g><g transform="translate(224.4076303724949 355.65625) rotate(0 -3.8984375 24.9296875)"><path d="M-12.34 25.02 C-9.9 31.42, -8.7 39.34, -7.13 49.47 M-12.34 25.02 C-10.99 32.35, -9.41 40.29, -7.13 49.47" stroke="#1e1e1e" stroke-width="2" fill="none"></path></g><g transform="translate(224.4076303724949 355.65625) rotate(0 -3.8984375 24.9296875)"><path d="M4.6 27.4 C2.13 33.13, -1.58 40.37, -7.13 49.47 M4.6 27.4 C0.54 33.97, -3.27 41.15, -7.13 49.47" stroke="#1e1e1e" stroke-width="2" fill="none"></path></g></g><mask></mask><g stroke-linecap="round"><g transform="translate(17.12291833148953 381.3041501532542) rotate(0 -2.842170943040401e-14 24.337890625)"><path d="M-0.03 -0.51 C0.13 7.68, 0.45 40.69, 0.54 48.82 M-0.71 0.42 C-0.54 8.46, 0.2 39.88, 0.38 47.92" stroke="#2f9e44" stroke-width="2" fill="none"></path></g></g><mask></mask><g stroke-linecap="round"><g transform="translate(67.54599693579081 380.1149572957539) rotate(0 -2.842170943040401e-14 24.337890625)"><path d="M0.54 0.14 C0.62 8.27, 0.54 40.19, 0.48 48.28 M0.15 -0.26 C0.21 7.97, 0.33 40.51, 0.3 48.77" stroke="#2f9e44" stroke-width="2" fill="none"></path></g></g><mask></mask><g stroke-linecap="round"><g transform="translate(21.913676383178938 380.27104384230904) rotate(0 22.40625 23.306640625)"><path d="M1.05 -0.87 C8.4 6.86, 37.97 38.75, 45.26 46.65 M0.15 1.29 C7.27 9.2, 37.23 40.45, 44.54 48.2" stroke="#2f9e44" stroke-width="2" fill="none"></path></g></g><mask></mask><g stroke-linecap="round"><g transform="translate(96.34668942885509 315.6454050913732) rotate(0 -15.634765625 21.8828125)"><path d="M-0.5 0.28 C-5.63 7.48, -26.77 35.7, -31.7 42.93 M1.43 -0.61 C-3.8 6.74, -27.59 36.43, -32.88 44.03" stroke="#1e1e1e" stroke-width="2" fill="none"></path></g><g transform="translate(96.34668942885509 315.6454050913732) rotate(0 -15.634765625 21.8828125)"><path d="M-25.56 20.13 C-26.75 24.64, -30.22 32.55, -32.88 44.03 M-25.56 20.13 C-28.56 27.71, -29.73 35.18, -32.88 44.03" stroke="#1e1e1e" stroke-width="2" fill="none"></path></g><g transform="translate(96.34668942885509 315.6454050913732) rotate(0 -15.634765625 21.8828125)"><path d="M-11.91 30.42 C-16.08 32.61, -22.56 38.26, -32.88 44.03 M-11.91 30.42 C-18.97 34.93, -24.17 39.36, -32.88 44.03" stroke="#1e1e1e" stroke-width="2" fill="none"></path></g></g><mask></mask><g stroke-linecap="round"><g transform="translate(208.7513803724949 39.91015625) rotate(0 29.234375 -0.5703125)"><path d="M-0.98 0.11 C8.59 0.16, 48.03 -0.2, 57.8 -0.47 M0.7 -0.88 C10.63 -1.11, 50.26 -2.33, 60.16 -2.25" stroke="#1e1e1e" stroke-width="2" fill="none"></path></g></g><mask></mask><g transform="translate(232.0170053724949 10) rotate(0 6.399993896484375 12.5)"><text x="0" y="0" font-family="Virgil, Segoe UI Emoji" font-size="20px" fill="#1e1e1e" text-anchor="start" style="white-space: pre;" direction="ltr" dominant-baseline="text-before-edge">4</text></g><g stroke-linecap="round"><g transform="translate(233.1341928724949 205.95703125) rotate(0 0.525390625 27.490234375)"><path d="M0.53 -0.73 C0.93 8.66, 1.31 46.87, 1.38 55.98 M-0.65 1.5 C-0.3 10.6, 0.47 45.51, 0.61 54.38" stroke="#1e1e1e" stroke-width="2" fill="none"></path></g><g transform="translate(233.1341928724949 205.95703125) rotate(0 0.525390625 27.490234375)"><path d="M-8.4 31.06 C-7.74 36.63, -2.91 41.03, 0.61 54.38 M-8.4 31.06 C-6.23 35.45, -4.98 41.06, 0.61 54.38" stroke="#1e1e1e" stroke-width="2" fill="none"></path></g><g transform="translate(233.1341928724949 205.95703125) rotate(0 0.525390625 27.490234375)"><path d="M8.7 30.72 C5.65 36.44, 6.78 40.91, 0.61 54.38 M8.7 30.72 C7.24 35.05, 4.87 40.73, 0.61 54.38" stroke="#1e1e1e" stroke-width="2" fill="none"></path></g></g><mask></mask><g stroke-linecap="round"><g transform="translate(303.4773531679162 268.51319863709625) rotate(0 0 24.337890625)"><path d="M0.24 0.25 C0.3 8.31, 0.26 40.39, 0.19 48.5 M-0.31 -0.1 C-0.28 8.02, -0.09 41.1, -0.15 49.11" stroke="#2f9e44" stroke-width="2" fill="none"></path></g></g><mask></mask><g stroke-linecap="round"><g transform="translate(305.7513803724949 267.17578125) rotate(0 26.4609375 0.669921875)"><path d="M-0.46 -0.97 C8.43 -0.64, 44.98 0.33, 53.76 0.74 M1.5 1.14 C10.27 1.72, 44.99 1.67, 53.25 1.96" stroke="#2f9e44" stroke-width="2" fill="none"></path></g></g><mask></mask><g stroke-linecap="round"><g transform="translate(137.7357553724949 337.03125) rotate(0 -3.935546875 28.181640625)"><path d="M-0.23 -0.65 C-1.68 8.86, -7.01 47.52, -8.11 57.01 M-1.81 1.62 C-3.49 10.79, -8.31 45.9, -9.18 55.22" stroke="#1e1e1e" stroke-width="2" fill="none"></path></g><g transform="translate(137.7357553724949 337.03125) rotate(0 -3.935546875 28.181640625)"><path d="M-14.9 30.88 C-14 39.02, -9.84 49.66, -9.18 55.22 M-14.9 30.88 C-12.89 38.01, -10.74 44.65, -9.18 55.22" stroke="#1e1e1e" stroke-width="2" fill="none"></path></g><g transform="translate(137.7357553724949 337.03125) rotate(0 -3.935546875 28.181640625)"><path d="M2.08 32.9 C-2.97 40.3, -4.74 50.24, -9.18 55.22 M2.08 32.9 C-0.87 39.59, -3.67 45.64, -9.18 55.22" stroke="#1e1e1e" stroke-width="2" fill="none"></path></g></g><mask></mask><g stroke-linecap="round"><g transform="translate(110.28965381379231 417.5218715607423) rotate(0 -2.842170943040401e-14 24.337890625)"><path d="M0.44 -0.08 C0.36 8, -0.42 40.42, -0.47 48.59 M0 -0.59 C0.08 7.55, 0.54 41.14, 0.52 49.25" stroke="#2f9e44" stroke-width="2" fill="none"></path></g></g><mask></mask><g stroke-linecap="round"><g transform="translate(115.08041186548172 416.4887652497971) rotate(0 22.40625 23.306640625)"><path d="M0.34 0.62 C7.88 8.3, 36.66 38.19, 44.21 45.92 M-0.94 -0.1 C7.09 7.74, 38.9 39.6, 46.6 47.09" stroke="#2f9e44" stroke-width="2" fill="none"></path></g></g><mask></mask><g stroke-linecap="round"><g transform="translate(112.5521616224949 416.546875) rotate(0 25.69921875 0.259765625)"><path d="M-0.35 0.01 C7.99 -0.07, 42.61 -0.11, 51.07 -0.15 M1.67 -1.03 C9.73 -0.99, 41.43 0.74, 49.95 1.03" stroke="#2f9e44" stroke-width="2" fill="none"></path></g></g><mask></mask><g stroke-linecap="round"><g transform="translate(261.7279428724949 357.40234375) rotate(0 7.923828125 24.92578125)"><path d="M-0.53 -0.81 C1.94 7.4, 12.63 41.21, 15.37 49.65 M1.39 1.38 C3.61 9.75, 11.87 42.8, 14.17 51.08" stroke="#1e1e1e" stroke-width="2" fill="none"></path></g><g transform="translate(261.7279428724949 357.40234375) rotate(0 7.923828125 24.92578125)"><path d="M-0.06 30.52 C3.56 36.87, 9.46 44.88, 14.17 51.08 M-0.06 30.52 C4.33 35.82, 9.5 42.01, 14.17 51.08" stroke="#1e1e1e" stroke-width="2" fill="none"></path></g><g transform="translate(261.7279428724949 357.40234375) rotate(0 7.923828125 24.92578125)"><path d="M16.49 26.19 C14.42 33.95, 14.63 43.46, 14.17 51.08 M16.49 26.19 C16.03 32.9, 16.32 40.38, 14.17 51.08" stroke="#1e1e1e" stroke-width="2" fill="none"></path></g></g><mask></mask><g stroke-linecap="round"><g transform="translate(276.6324973208055 432.6346688109452) rotate(0 0 24.337890625)"><path d="M-0.11 -0.42 C-0.17 7.75, 0 40.41, 0.07 48.62 M-0.82 0.55 C-1 8.85, -0.48 41.41, -0.33 49.3" stroke="#2f9e44" stroke-width="2" fill="none"></path></g></g><mask></mask><g stroke-linecap="round"><g transform="translate(327.0555759251068 431.4454759534449) rotate(0 0 24.337890625)"><path d="M0.07 -0.05 C0.14 8.16, 0.31 40.81, 0.3 48.86 M-0.56 -0.55 C-0.53 7.53, -0.01 39.79, 0.03 47.99" stroke="#2f9e44" stroke-width="2" fill="none"></path></g></g><mask></mask><g stroke-linecap="round"><g transform="translate(277.5443491224949 428.125) rotate(0 25.126953125 0.740234375)"><path d="M-0.5 1.06 C7.85 1.29, 41.09 1.08, 49.53 1.09 M1.44 0.57 C10.22 0.99, 43.88 2.15, 51.87 2.42" stroke="#2f9e44" stroke-width="2" fill="none"></path></g></g><mask></mask><g stroke-linecap="round"><g transform="translate(327.5990366224949 335.5234375) rotate(0 8.162109375 19.033203125)"><path d="M0.86 0.34 C3.28 6.72, 13.19 31.63, 15.67 38.01 M-0.15 -0.53 C2.56 6.07, 15.57 33.33, 18.03 39.52" stroke="#1e1e1e" stroke-width="2" fill="none"></path></g><g transform="translate(327.5990366224949 335.5234375) rotate(0 8.162109375 19.033203125)"><path d="M3.66 24.61 C9.87 29.31, 14.91 35.29, 18.03 39.52 M3.66 24.61 C9.64 29.41, 14.43 35.44, 18.03 39.52" stroke="#1e1e1e" stroke-width="2" fill="none"></path></g><g transform="translate(327.5990366224949 335.5234375) rotate(0 8.162109375 19.033203125)"><path d="M16.6 18.86 C17.68 25.93, 17.59 34.18, 18.03 39.52 M16.6 18.86 C18.15 25.72, 18.47 33.75, 18.03 39.52" stroke="#1e1e1e" stroke-width="2" fill="none"></path></g></g><mask></mask><g stroke-linecap="round"><g transform="translate(354.29602787870937 395.6437858169503) rotate(0 0 24.337890625)"><path d="M0.04 -0.52 C-0.02 7.6, 0.01 40.44, 0.09 48.73 M-0.6 0.4 C-0.77 8.61, -0.46 41.45, -0.29 49.45" stroke="#ced4da" stroke-width="2" fill="none"></path></g></g><mask></mask><g stroke-linecap="round"><g transform="translate(359.0867859303988 394.6106795060051) rotate(0 22.40625 23.306640625)"><path d="M0.21 0.11 C7.85 8.26, 38.52 40.22, 45.95 47.79 M-1.15 -0.88 C6.43 7.07, 38.07 38.43, 45.6 46.29" stroke="#ced4da" stroke-width="2" fill="none"></path></g></g><mask></mask><g stroke-linecap="round"><g transform="translate(356.55853568741196 394.668789256208) rotate(0 25.69921875 0.259765625)"><path d="M1.14 1.18 C9.67 1.07, 43.16 -0.5, 51.39 -0.57 M0.28 0.76 C8.64 0.74, 41.66 0.15, 50.44 0.4" stroke="#ced4da" stroke-width="2" fill="none"></path></g></g><mask></mask><g stroke-linecap="round"><g transform="translate(432.6152140218397 357.85059476091067) rotate(0 0 24.337890625)"><path d="M-0.02 -0.14 C-0.14 8.08, -0.15 40.86, -0.23 48.93 M-0.7 -0.68 C-0.94 7.4, -0.99 39.86, -0.77 48.1" stroke="#ced4da" stroke-width="2" fill="none"></path></g></g><mask></mask><g stroke-linecap="round"><g transform="translate(483.03829262614096 356.66140190341036) rotate(0 0 24.337890625)"><path d="M-0.23 0.26 C-0.3 8.34, -0.48 40.3, -0.48 48.34 M0.66 -0.08 C0.75 8.07, 0.72 40.69, 0.5 48.86" stroke="#ced4da" stroke-width="2" fill="none"></path></g></g><mask></mask><g stroke-linecap="round"><g transform="translate(433.5270658235291 353.3409259499655) rotate(0 25.126953125 0.740234375)"><path d="M-1.05 -0.74 C7.33 -0.68, 41.37 0.75, 49.8 0.97 M0.6 1.48 C8.82 1.66, 40.04 2.25, 48.61 2.24" stroke="#ced4da" stroke-width="2" fill="none"></path></g></g><mask></mask><g stroke-linecap="round"><g transform="translate(372.2254449398076 304.84740284892723) rotate(0 19.150390625 17.716796875)"><path d="M-0.63 0.14 C5.81 5.83, 32.69 28.53, 39.11 34.59 M1.23 -0.84 C7.55 4.95, 32.64 29.76, 38.58 35.68" stroke="#1e1e1e" stroke-width="2" fill="none"></path></g><g transform="translate(372.2254449398076 304.84740284892723) rotate(0 19.150390625 17.716796875)"><path d="M15.87 25.22 C23.81 30.22, 29.84 31.68, 38.58 35.68 M15.87 25.22 C24.25 29.18, 33.96 33.93, 38.58 35.68" stroke="#1e1e1e" stroke-width="2" fill="none"></path></g><g transform="translate(372.2254449398076 304.84740284892723) rotate(0 19.150390625 17.716796875)"><path d="M27.91 13.07 C31.82 22.11, 33.79 27.68, 38.58 35.68 M27.91 13.07 C31.73 21.67, 36.77 31.12, 38.58 35.68" stroke="#1e1e1e" stroke-width="2" fill="none"></path></g></g><mask></mask><g stroke-linecap="round"><g transform="translate(30.950599122494907 443.08984375) rotate(0 -1.7890625 26.181640625)"><path d="M-0.81 0.82 C-1.66 9.33, -3.69 43.37, -4.08 52.02 M0.97 0.2 C-0.18 8.8, -4.51 44.99, -5.28 53.38" stroke="#1e1e1e" stroke-width="2" fill="none"></path></g><g transform="translate(30.950599122494907 443.08984375) rotate(0 -1.7890625 26.181640625)"><path d="M-11.24 29.1 C-7.37 37.73, -6.99 48.71, -5.28 53.38 M-11.24 29.1 C-10.36 36.18, -6.65 44.32, -5.28 53.38" stroke="#1e1e1e" stroke-width="2" fill="none"></path></g><g transform="translate(30.950599122494907 443.08984375) rotate(0 -1.7890625 26.181640625)"><path d="M5.76 30.95 C3.02 38.75, -3.2 49.01, -5.28 53.38 M5.76 30.95 C1.05 37.35, -0.85 44.87, -5.28 53.38" stroke="#1e1e1e" stroke-width="2" fill="none"></path></g></g><mask></mask><g stroke-linecap="round"><g transform="translate(10.34434131379237 516.6937465607423) rotate(0 -2.842170943040401e-14 24.337890625)"><path d="M-0.34 0.4 C-0.18 8.46, 0.55 40.36, 0.53 48.48 M0.48 0.13 C0.66 8.26, 0.35 41.06, 0.37 49.08" stroke="#2f9e44" stroke-width="2" fill="none"></path></g></g><mask></mask><g stroke-linecap="round"><g transform="translate(60.76741991809365 515.504553703242) rotate(0 -2.842170943040401e-14 24.337890625)"><path d="M0.53 -0.19 C0.52 7.93, -0.33 40.89, -0.44 49.12 M0.14 -0.77 C0.32 7.17, 0.68 40.19, 0.57 48.38" stroke="#2f9e44" stroke-width="2" fill="none"></path></g></g><mask></mask><g stroke-linecap="round"><g transform="translate(15.135099365481778 515.6606402497971) rotate(0 22.40625 23.306640625)"><path d="M-0.96 0.96 C6.27 8.98, 36.76 40.06, 44.58 47.72 M0.73 0.42 C7.69 8.17, 36 38.18, 43.5 46.17" stroke="#2f9e44" stroke-width="2" fill="none"></path></g></g><mask></mask><g stroke-linecap="round"><g transform="translate(15.020911622494907 513.1953125) rotate(0 21.833984375 0.37109375)"><path d="M-0.54 0.32 C6.66 0.5, 36.08 0.55, 43.37 0.56 M0.18 0.01 C7.54 0.3, 37.11 1.04, 44.46 1.16" stroke="#2f9e44" stroke-width="2" fill="none"></path></g></g><mask></mask><g stroke-linecap="round"><g transform="translate(134.76289558710283 477.4377180079741) rotate(0 -1.0390625 24.00390625)"><path d="M-0.14 -0.2 C-0.42 7.83, -1.69 39.68, -2 47.64 M0.79 -0.78 C0.46 7.35, -1.87 40.03, -2.4 48.15" stroke="#1e1e1e" stroke-width="2" fill="none"></path></g><g transform="translate(134.76289558710283 477.4377180079741) rotate(0 -1.0390625 24.00390625)"><path d="M-9.06 25.06 C-7.87 30.96, -6.52 36.65, -2.4 48.15 M-9.06 25.06 C-7.17 30.24, -5.73 34.84, -2.4 48.15" stroke="#1e1e1e" stroke-width="2" fill="none"></path></g><g transform="translate(134.76289558710283 477.4377180079741) rotate(0 -1.0390625 24.00390625)"><path d="M7.34 26.18 C4.44 31.78, 1.71 37.19, -2.4 48.15 M7.34 26.18 C5.7 31.08, 3.6 35.44, -2.4 48.15" stroke="#1e1e1e" stroke-width="2" fill="none"></path></g></g><mask></mask><g stroke-linecap="round"><g transform="translate(111.0746065284003 544.9361520687166) rotate(0 -2.842170943040401e-14 24.337890625)"><path d="M0.07 -0.37 C0.1 7.7, 0.02 40.08, 0.04 48.21 M-0.55 0.63 C-0.58 8.77, -0.46 40.62, -0.38 48.67" stroke="#ced4da" stroke-width="2" fill="none"></path></g></g><mask></mask><g stroke-linecap="round"><g transform="translate(161.49768513270152 543.7469592112161) rotate(0 0 24.337890625)"><path d="M0.04 -0.47 C0.06 7.67, 0.13 40.21, 0.2 48.44 M-0.61 0.48 C-0.65 8.72, -0.28 41.11, -0.13 49.02" stroke="#ced4da" stroke-width="2" fill="none"></path></g></g><mask></mask><g stroke-linecap="round"><g transform="translate(115.8653645800897 543.9030457577715) rotate(0 22.40624999999997 23.306640625)"><path d="M0.44 -0.52 C8.06 7.5, 38.25 39.28, 45.81 47.07 M-0.79 1.83 C6.76 9.56, 37.66 37.61, 45.39 45.18" stroke="#ced4da" stroke-width="2" fill="none"></path></g></g><mask></mask><g stroke-linecap="round"><g transform="translate(115.75117683710278 541.4377180079741) rotate(0 21.83398437500003 0.37109375)"><path d="M0.46 0.21 C7.78 0.34, 36.84 0.49, 44.12 0.54 M0.03 -0.16 C7.3 0.06, 36.59 0.95, 43.93 1.14" stroke="#ced4da" stroke-width="2" fill="none"></path></g></g><mask></mask><g stroke-linecap="round"><g transform="translate(297.67103285864283 499.97874658874446) rotate(0 0.76953125 24.720703125)"><path d="M-0.3 0.4 C-0.01 8.68, 1.39 41.67, 1.66 49.81 M0.55 0.13 C0.78 8.24, 1.24 40.76, 1.29 49.04" stroke="#1e1e1e" stroke-width="2" fill="none"></path></g><g transform="translate(297.67103285864283 499.97874658874446) rotate(0 0.76953125 24.720703125)"><path d="M-7.42 25.89 C-4.17 32.76, -1.73 38.81, 1.29 49.04 M-7.42 25.89 C-4.67 32.14, -2.83 38.78, 1.29 49.04" stroke="#1e1e1e" stroke-width="2" fill="none"></path></g><g transform="translate(297.67103285864283 499.97874658874446) rotate(0 0.76953125 24.720703125)"><path d="M9.49 25.7 C7.9 32.58, 5.5 38.68, 1.29 49.04 M9.49 25.7 C7.68 31.97, 4.94 38.66, 1.29 49.04" stroke="#1e1e1e" stroke-width="2" fill="none"></path></g></g><mask></mask><g stroke-linecap="round"><g transform="translate(275.28352504994024 564.133430649487) rotate(0 0 24.337890625)"><path d="M0.12 0.37 C0.14 8.39, -0.17 40.5, -0.2 48.51 M-0.48 0.08 C-0.52 8.15, -0.74 40.98, -0.73 49.13" stroke="#ced4da" stroke-width="2" fill="none"></path></g></g><mask></mask><g stroke-linecap="round"><g transform="translate(325.7066036542415 562.9442377919864) rotate(0 0 24.337890625)"><path d="M-0.2 -0.16 C-0.23 7.85, -0.17 40.32, -0.06 48.46 M0.7 -0.72 C0.58 7.33, -0.46 40.72, -0.52 49.04" stroke="#ced4da" stroke-width="2" fill="none"></path></g></g><mask></mask><g stroke-linecap="round"><g transform="translate(280.07428310162965 563.1003243385418) rotate(0 22.40625 23.306640625)"><path d="M-0.12 -0.48 C7.58 7.34, 38.36 38.56, 45.81 46.56 M-1.65 -1.77 C6.03 6.27, 37.83 40.17, 45.38 48.07" stroke="#ced4da" stroke-width="2" fill="none"></path></g></g><mask></mask><g stroke-linecap="round"><g transform="translate(279.96009535864283 560.6349965887445) rotate(0 21.833984375 0.37109375)"><path d="M0.46 -0.03 C7.72 0.2, 36.3 1.03, 43.55 1.14 M0.03 -0.51 C7.22 -0.42, 35.77 0.09, 43.06 0.38" stroke="#ced4da" stroke-width="2" fill="none"></path></g></g><mask></mask></svg>